# xmcd CD database file
#
# Track frame offsets:
#	150
#	22145
#	43269
#	71192
#	92370
#	114517
#	132288
#	163924
#	185278
#	208352
#	232181
#	258914
#
# Disc length: 3772 seconds
#
# Revision: 1
# Processed by: cddbd v1.5.1PL2 Copyright (c) Steve Scherf et al.
# Submitted via: CDex 1.51
#
DISCID=b40eba0c
DTITLE=Jazz Indeed - Blaue Augen
DYEAR=2005
DGENRE=Jazz
TTITLE0=Fahrn, Fahrn, Fahrn auf der Autobahn
TTITLE1=Blaue Augen
TTITLE2=Urlaubsflirt
TTITLE3=Alles Lüge
TTITLE4=Feuerzeug
TTITLE5=Andy Warhol
TTITLE6=Goldener Reiter
TTITLE7=Inflation im Paradies
TTITLE8=Hotel Garni
TTITLE9=Jens
TTITLE10=Queen Margrethe
TTITLE11=Deja Vu
EXTD=YEAR: 2005
EXTT0=
EXTT1=
EXTT2=
EXTT3=
EXTT4=
EXTT5=
EXTT6=
EXTT7=
EXTT8=
EXTT9=
EXTT10=
EXTT11=
PLAYORDER=
